<?xml version="1.0" encoding="UTF-8"?>
<svg width="427px" height="151px" viewBox="0 0 427 151" version="1.1" xmlns="http://www.w3.org/2000/svg" xmlns:xlink="http://www.w3.org/1999/xlink">
    <!-- Generator: Sketch 41.2 (35397) - http://www.bohemiancoding.com/sketch -->
    <title>Group 4</title>
    <desc>Created with Sketch.</desc>
    <defs></defs>
    <g id="Welcome" stroke="none" stroke-width="1" fill="none" fill-rule="evenodd">
        <g id="Desktop-HD" transform="translate(-549.000000, -1580.000000)">
            <g id="Group-4" transform="translate(549.000000, 1580.000000)">
                <path d="M0.488,127.656034 L0.488,150.000034 L9.608,150.000034 C32.636,150.000034 47.684,141.336034 47.684,118.536034 L47.684,24.8280342 L27.392,0.66003418 L22.832,0.66003418 L22.832,113.976034 C22.832,124.692034 17.588,127.656034 9.608,127.656034 L0.488,127.656034 Z M129.978591,55.1520342 L129.978591,30.5280342 C129.978591,9.32403418 114.018591,0.88803418 93.9545913,0.88803418 L93.2705913,0.88803418 C73.4345913,0.88803418 57.2465913,9.32403418 57.2465913,30.5280342 L57.2465913,49.9080342 C57.2465913,65.6400342 65.6825913,72.2520342 79.8185913,80.2320342 L97.1465913,89.8080342 C104.214591,93.6840342 106.266591,97.3320342 106.266591,105.312034 L106.266591,116.940034 C106.266591,126.060034 101.022591,129.936034 93.9545913,129.936034 C86.8865913,129.936034 81.1865913,126.060034 81.1865913,116.940034 L81.1865913,94.3680342 L57.2465913,114.432034 L57.2465913,120.132034 C57.2465913,142.704034 71.1545913,150.456034 93.9545913,150.456034 C116.754591,150.456034 130.662591,142.704034 130.662591,120.132034 L130.662591,98.9280342 C130.662591,83.4240342 121.998591,77.0400342 108.090591,68.6040342 L90.7625913,59.0280342 C83.6945913,55.1520342 81.1865913,52.1880342 81.1865913,44.2080342 L81.1865913,34.4040342 C81.1865913,24.6000342 86.8865913,21.6360342 93.9545913,21.6360342 C101.022591,21.6360342 106.266591,24.6000342 106.266591,34.4040342 L106.266591,55.1520342 L129.978591,55.1520342 Z" id="JS" fill="#FFFFFF"></path>
                <path d="M210.344,88.212 L201.452,88.212 L185.948,101.664 L185.948,114.432 C185.948,124.692 181.16,127.884 173.18,127.884 C165.656,127.884 160.412,124.692 160.412,114.432 L160.412,35.316 C160.412,25.056 165.656,21.864 173.18,21.864 C181.16,21.864 185.948,25.056 185.948,35.316 L185.948,57.66 L210.344,57.66 L210.344,31.44 C210.344,9.552 195.752,0.66 173.18,0.66 C150.608,0.66 136.244,9.78 136.244,31.44 L136.244,118.308 C136.244,141.108 150.608,148.86 173.18,148.86 C195.752,148.86 210.344,140.88 210.344,118.308 L210.344,88.212 Z M216.942591,121.728 C216.942591,142.476 230.394591,150 251.142591,150 L252.282591,150 C273.030591,150 285.798591,142.476 285.798591,121.728 L285.798591,41.7 C285.798591,20.952 272.574591,13.428 252.282591,13.428 L251.142591,13.428 C230.394591,13.428 216.942591,20.952 216.942591,41.7 L216.942591,121.728 Z M239.514591,45.12 C239.514591,35.088 244.530591,32.808 251.826591,32.808 C258.894591,32.808 263.910591,35.088 263.910591,45.12 L263.910591,118.08 C263.910591,128.112 258.894591,130.392 251.826591,130.392 C244.530591,130.392 239.514591,128.112 239.514591,118.08 L239.514591,45.12 Z M355.097183,62.448 L355.097183,39.876 C355.097183,20.268 340.277183,12.516 322.037183,12.516 L321.353183,12.516 C303.113183,12.516 288.293183,20.268 288.293183,39.876 L288.293183,57.66 C288.293183,71.796 296.045183,78.18 309.041183,85.476 L325.001183,94.368 C331.385183,97.788 333.437183,101.436 333.437183,108.504 L333.437183,119.22 C333.437183,127.656 328.421183,131.076 322.037183,131.076 C315.425183,131.076 310.409183,127.656 310.409183,119.22 L310.409183,98.472 L288.293183,116.94 L288.293183,122.184 C288.293183,142.932 301.289183,150 322.037183,150 C342.785183,150 355.781183,142.932 355.781183,122.184 L355.781183,102.576 C355.781183,88.212 348.029183,82.74 335.033183,74.76 L319.073183,65.868 C312.689183,62.448 310.409183,59.484 310.409183,52.416 L310.409183,43.296 C310.409183,34.404 315.425183,31.668 322.037183,31.668 C328.421183,31.668 333.437183,34.404 333.437183,43.296 L333.437183,62.448 L355.097183,62.448 Z M410.259774,13.2 L358.503774,13.2 L358.503774,33.036 L381.303774,33.036 L381.303774,150.228 L404.103774,150.228 L404.103774,33.036 L426.903774,33.036 L410.259774,13.2 Z" id="Cost" fill="#F1DD3F"></path>
            </g>
        </g>
    </g>
</svg>