<?xml version="1.0" standalone="no"?>
<!DOCTYPE svg PUBLIC "-//W3C//DTD SVG 20010904//EN"
 "http://www.w3.org/TR/2001/REC-SVG-20010904/DTD/svg10.dtd">
<svg version="1.0" xmlns="http://www.w3.org/2000/svg"
 width="1503.000000pt" height="1503.000000pt" viewBox="0 0 1503.000000 1503.000000"
 preserveAspectRatio="xMidYMid meet">
<metadata>
Created by potrace 1.11, written by Peter Selinger 2001-2013
</metadata>
<g transform="translate(0.000000,1503.000000) scale(0.100000,-0.100000)"
fill="#000000" stroke="none">
<path d="M7158 15015 c-2 -2 -58 -6 -126 -10 -67 -4 -135 -8 -150 -10 -15 -2
-65 -6 -112 -10 -47 -3 -92 -8 -100 -10 -8 -2 -42 -7 -75 -10 -33 -4 -71 -8
-85 -10 -14 -2 -47 -7 -75 -10 -76 -10 -370 -62 -455 -80 -41 -9 -86 -19 -100
-21 -14 -3 -63 -14 -110 -25 -47 -11 -92 -22 -100 -24 -214 -51 -534 -151
-785 -246 -232 -87 -232 -87 -464 -189 -165 -72 -476 -231 -651 -333 -47 -27
-99 -57 -116 -67 -172 -99 -604 -394 -729 -497 -6 -4 -55 -44 -110 -87 -125
-100 -195 -160 -369 -316 -75 -66 -423 -414 -491 -490 -312 -346 -574 -692
-811 -1070 -91 -144 -204 -336 -204 -346 0 -2 -11 -22 -25 -44 -38 -60 -205
-398 -270 -545 -31 -71 -63 -143 -70 -160 -62 -138 -216 -573 -268 -755 -13
-47 -30 -105 -37 -130 -8 -25 -14 -49 -16 -55 -1 -5 -7 -30 -14 -55 -7 -25
-13 -52 -15 -60 -2 -8 -8 -35 -15 -60 -7 -25 -14 -56 -17 -70 -2 -14 -13 -63
-23 -110 -19 -88 -74 -385 -84 -455 -4 -22 -8 -51 -11 -65 -2 -14 -7 -46 -10
-72 -3 -27 -7 -67 -10 -90 -13 -107 -15 -128 -21 -208 -3 -47 -8 -87 -10 -91
-1 -3 -6 -70 -11 -150 -14 -264 -8 -910 12 -1074 2 -16 6 -66 10 -110 3 -44 8
-87 10 -95 2 -8 6 -46 10 -83 3 -37 8 -78 11 -90 2 -12 6 -42 9 -67 7 -52 16
-116 21 -145 2 -10 6 -35 9 -55 3 -20 8 -47 10 -60 12 -55 26 -127 30 -155 13
-79 83 -367 130 -540 47 -169 134 -442 179 -560 15 -38 34 -90 43 -115 8 -25
23 -63 33 -85 10 -22 32 -74 48 -115 95 -233 254 -558 400 -815 176 -311 475
-750 670 -985 29 -36 59 -72 65 -80 41 -52 148 -176 246 -285 110 -120 459
-463 586 -574 311 -273 628 -508 1010 -750 53 -34 210 -127 225 -134 8 -4 29
-15 45 -25 111 -67 618 -322 641 -322 2 0 32 -13 66 -29 171 -79 561 -221 838
-304 166 -50 486 -130 610 -152 32 -6 117 -23 150 -30 14 -3 57 -10 95 -16 39
-6 75 -12 80 -14 12 -2 96 -15 145 -21 19 -2 49 -6 65 -9 47 -7 127 -17 160
-20 67 -6 182 -17 210 -20 244 -27 989 -27 1235 0 19 2 64 6 100 10 36 3 81 8
100 10 19 2 60 7 90 10 30 3 66 8 80 10 14 2 45 7 70 10 116 16 323 51 465 81
11 2 34 7 50 10 17 3 68 14 115 25 47 12 93 23 103 25 41 10 58 14 167 43 63
17 140 39 170 48 30 9 60 18 65 19 36 7 455 152 500 173 11 5 49 21 85 35 716
275 1505 755 2115 1285 175 152 180 156 380 354 240 236 406 423 653 732 330
414 692 1019 927 1550 52 118 163 386 169 410 2 6 7 21 13 35 15 37 101 293
130 385 86 281 168 618 217 901 9 49 18 98 20 109 2 11 7 43 10 70 4 28 10 64
12 80 3 17 7 44 9 60 9 83 17 152 20 171 2 12 6 61 10 110 4 49 9 97 11 107 9
49 18 329 19 559 0 142 3 258 7 258 12 0 -5 341 -18 362 -6 9 -9 34 -19 158
-3 41 -8 84 -10 95 -2 11 -7 43 -9 70 -8 74 -25 202 -36 265 -5 30 -12 75 -15
100 -3 25 -8 52 -10 60 -2 8 -7 31 -10 50 -3 19 -8 42 -11 51 -2 10 -6 30 -8
46 -4 27 -38 182 -76 343 -10 41 -37 140 -59 220 -23 80 -43 152 -46 160 -55
201 -218 634 -331 878 -19 41 -34 75 -34 78 0 7 -162 330 -205 409 -113 208
-291 502 -379 628 -23 31 -72 103 -111 158 -67 96 -228 309 -284 375 -14 17
-35 42 -46 56 -182 232 -613 674 -863 886 -15 12 -39 34 -53 47 -52 48 -349
282 -457 360 -61 44 -111 85 -112 90 0 15 -277 196 -308 201 -15 3 -34 11 -42
18 -19 16 -204 126 -335 199 -172 95 -438 226 -619 304 -44 19 -94 40 -110 48
-56 25 -267 106 -370 142 -56 19 -110 38 -121 43 -17 7 -70 23 -305 96 -25 7
-72 20 -105 28 -33 8 -105 27 -160 41 -222 59 -605 132 -840 160 -27 3 -61 8
-75 10 -14 3 -56 7 -95 11 -38 4 -83 8 -100 10 -16 2 -73 6 -125 9 -52 4 -108
9 -125 11 -32 6 -801 14 -807 9z"/>
</g>
</svg>
